<?xml version="1.0" encoding="UTF-8" standalone="no"?>
<!DOCTYPE svg PUBLIC "-//W3C//DTD SVG 1.1//EN" "http://www.w3.org/Graphics/SVG/1.1/DTD/svg11.dtd">
<svg width="100%" height="100%" viewBox="0 0 2481 709" version="1.1" xmlns="http://www.w3.org/2000/svg" xmlns:xlink="http://www.w3.org/1999/xlink" xml:space="preserve" xmlns:serif="http://www.serif.com/" style="fill-rule:evenodd;clip-rule:evenodd;stroke-linecap:round;stroke-linejoin:round;stroke-miterlimit:2.613;">
    <path d="M31.121,266.902C23.384,341.367 56.91,410.675 125.25,453.226C150.394,469.666 179.406,479.982 212.609,485.14C332.527,504.803 436.971,457.739 501.12,357.485C504.344,353.295 507.568,348.137 510.469,342.979L372.822,298.493C371.855,301.072 370.887,303.651 369.598,306.23C356.059,326.861 344.132,338.788 328.658,347.492C301.903,362.643 276.759,366.189 255.16,361.031C231.628,355.873 212.287,339.755 207.129,325.249L206.807,321.703L206.162,317.512L525.298,232.087C524.653,219.193 522.396,206.299 519.495,194.372C490.16,66.072 380.236,1.923 244.523,28.357C212.287,34.481 182.307,46.409 154.584,63.494C77.863,110.558 32.088,186.635 31.121,266.902ZM370.565,180.51L192.945,227.575C193.268,223.384 193.59,218.226 194.879,214.035C203.261,172.129 233.24,141.182 272.89,131.189C317.376,119.907 354.447,137.959 366.697,170.517L369.92,177.286L370.565,180.51Z" style="fill:rgb(0,117,191);stroke:rgb(35,31,32);stroke-width:31.34px;"/>
    <path d="M445.151,480.626L603.752,480.626L628.896,207.91L630.83,197.595L632.119,187.602C636.955,160.846 663.71,144.728 698.848,156.011C727.86,165.359 743.655,191.792 738.82,243.047L716.9,480.626L876.468,480.626L901.934,207.266C902.901,194.372 903.546,189.214 904.513,185.023C910.638,158.267 935.459,144.728 966.083,153.432C971.563,155.044 975.754,156.655 980.267,159.234C1003.15,173.74 1012.83,195.983 1008.63,240.469L986.714,480.626L1145.64,480.626L1171.1,203.72C1178.84,119.907 1145.32,63.494 1073.43,39.639C1004.12,16.429 932.236,31.902 885.171,72.197C882.27,75.421 879.369,78 876.468,80.579C861.961,60.915 838.107,43.83 802.97,35.448C777.503,28.357 749.78,27.712 722.702,32.87C688.855,38.672 658.875,53.178 635.02,72.842L638.566,38.027L485.768,38.027L479.572,105.535C497.964,130.2 511.629,159.977 519.495,194.372C522.396,206.299 524.653,219.193 525.298,232.087L466.516,247.82L459.299,326.44L510.469,342.979C507.568,348.137 504.344,353.295 501.12,357.485C486.404,380.485 469.561,400.677 450.904,417.914L445.151,480.626Z" style="fill:rgb(0,117,191);stroke:rgb(35,31,32);stroke-width:31.34px;"/>
    <path d="M1070.53,663.404L1229.45,663.404L1249.76,445.489L1263.3,455.805C1299.73,478.692 1347.43,487.396 1405.46,477.08C1509.26,457.417 1591.14,369.412 1603.07,250.462C1606.29,217.259 1604.36,187.28 1598.88,161.491C1565.99,29.968 1409.97,-21.287 1299.73,48.665C1291.99,53.823 1284.25,58.98 1278.45,63.171L1281.35,29.001L1128.88,29.001L1125.31,67.725C1161.02,97.749 1176.64,143.707 1171.1,203.72L1145.64,480.626L1087.34,480.626L1070.53,663.404ZM1261.37,266.902C1261.04,261.745 1261.37,256.587 1262.01,251.429C1262.33,245.304 1263.3,240.147 1264.59,234.989C1275.55,172.773 1324.87,136.669 1379.03,146.985C1419.64,154.721 1444.14,184.701 1444.14,234.989C1444.79,304.296 1409.65,346.202 1359.68,354.906C1303.92,365.222 1261.04,330.085 1261.37,266.902Z" style="fill:rgb(0,117,191);stroke:rgb(35,31,32);stroke-width:31.34px;"/>
    <path d="M1548.71,388.987C1564.49,413.894 1586.5,435.805 1614.35,453.226C1640.14,469.666 1668.83,479.982 1701.71,485.14C1821.62,504.803 1926.07,457.739 1990.54,357.485C1993.77,353.295 1996.67,348.137 2000.21,342.979L1862.56,298.493C1860.95,301.072 1859.99,303.651 1859.02,306.23C1845.48,326.861 1833.23,338.788 1818.08,347.492C1791.64,362.643 1765.86,366.189 1744.9,361.031C1720.73,355.873 1701.38,339.755 1696.55,325.249L1695.9,321.703L1695.58,317.512L2014.72,232.087C2014.07,219.193 2011.49,206.299 2009.24,194.372C1979.26,66.072 1869.98,1.923 1733.94,28.357C1701.71,34.481 1671.73,46.409 1643.68,63.494C1619.64,78.362 1598.64,96.132 1581.1,116.011C1588.73,129.864 1594.77,145.05 1598.88,161.491C1604.36,187.28 1606.29,217.259 1603.07,250.462C1597.69,304.063 1578.1,351.374 1548.71,388.987ZM1859.66,180.51L1682.04,227.575C1682.37,223.384 1683.01,218.226 1684.3,214.035C1692.68,172.129 1722.34,141.182 1762.31,131.189C1806.47,119.907 1843.87,137.959 1856.12,170.517L1859.02,177.286L1859.66,180.51Z" style="fill:rgb(0,117,191);stroke:rgb(35,31,32);stroke-width:31.34px;"/>
    <path d="M1938.88,262.712C1936.94,277.218 1935.65,291.724 1935.98,306.23C1936.22,311.8 1936.65,317.266 1937.27,322.639L2000.21,342.979C1996.67,348.137 1993.77,353.295 1990.54,357.485C1981.45,371.624 1971.55,384.702 1960.94,396.692C1972.52,417.095 1987.75,434.695 2005.93,449.035C2074.27,502.225 2165.82,506.415 2237.06,467.087L2246.41,461.93L2253.18,457.739L2251.57,474.824C2246.73,527.046 2207.73,559.282 2128.1,561.216C2101.99,561.861 2075.88,558.637 2050.41,550.901L2038.81,682.423C2067.82,686.614 2097.8,687.581 2126.49,687.581C2304.76,683.39 2400.5,606.347 2411.14,486.751L2452.4,38.027L2299.92,38.027L2296.7,73.809L2289.93,68.651L2282.19,64.461C2189.52,7.081 2059.07,43.306 1987.98,135.93C1997.09,153.566 2004.26,173.078 2009.24,194.372C2011.49,206.299 2014.07,219.193 2014.72,232.087L1940.22,252.029C1939.74,255.597 1939.3,259.166 1938.88,262.712ZM2099.41,275.606C2099.09,270.448 2099.41,265.29 2100.06,260.133C2100.38,254.975 2101.03,249.817 2102.32,244.66C2113.28,185.668 2149.38,154.077 2200.63,154.077C2251.57,154.077 2281.87,185.668 2281.87,244.66C2282.84,254.975 2281.87,264.323 2278.97,274.639C2269.94,327.828 2240.93,356.84 2198.7,363.61C2139.39,372.958 2100.06,339.755 2099.41,275.606Z" style="fill:rgb(0,117,191);stroke:rgb(35,31,32);stroke-width:31.34px;"/>
</svg>
